{"asset":{"generator":"Khronos glTF Spline I/O v0.0.1","version":"2.0"},"scenes":[{"nodes":[0]}],"nodes":[{"name":"","children":[1,2,3,4]},{"name":"Directional Light","translation":[0,410.3829585022435,0],"rotation":[-0.7071067811865475,0,0,0.7071067811865476],"extensions":{"KHR_lights_punctual":{"light":0}}},{"name":"Sphere","matrix":[2.220446049250313e-16,0,-1,0,0,1,0,0,1,0,2.220446049250313e-16,0,0,33.849449996339445,0,1],"mesh":0},{"name":"Shape","matrix":[1,0,0,0,0,1,0,0,0,0,1,0,-698.7189814030576,1149.2944747617594,-1528.881215423125,1],"mesh":1},{"name":"Personal Camera","camera":0,"translation":[814.5046546425017,32.242451337349884,0.12810144410950575],"rotation":[0.000697606406411842,0.7070508297580015,-0.0006974966987997704,0.7071620401168168]}],"cameras":[{"type":"perspective","perspective":{"aspectRatio":2.037135278514589,"yfov":0.7853981633974483,"znear":5,"zfar":100000}}],"meshes":[{"primitives":[{"attributes":{"POSITION":1,"NORMAL":2,"TEXCOORD_0":3},"indices":0}]},{"primitives":[{"attributes":{"POSITION":5,"NORMAL":6,"TEXCOORD_0":7},"indices":4}]}],"buffers":[{"uri":"data:application/octet-stream;base64,","byteLength":445232},{"uri":"data:application/octet-stream;base64,","byteLength":20592}],"bufferViews":[{"buffer":0,"byteOffset":0,"byteLength":118800,"target":34963},{"buffer":0,"byteOffset":118800,"byteLength":122412,"target":34962},{"buffer":0,"byteOffset":241212,"byteLength":122412,"target":34962},{"buffer":0,"byteOffset":363624,"byteLength":81608,"target":34962},{"buffer":1,"byteOffset":0,"byteLength":2160,"target":34963},{"buffer":1,"byteOffset":2160,"byteLength":6144,"target":34962},{"buffer":1,"byteOffset":8304,"byteLength":6144,"target":34962},{"buffer":1,"byteOffset":14448,"byteLength":6144,"target":34962}],"accessors":[{"bufferView":0,"byteOffset":0,"componentType":5123,"count":59400,"type":"SCALAR","min":[0],"max":[10200]},{"bufferView":1,"byteOffset":0,"componentType":5126,"count":10201,"type":"VEC3","min":[-107.65869140625,-107.65869140625,-107.65869140625],"max":[107.65869140625,107.65869140625,107.65869140625]},{"bufferView":2,"byteOffset":0,"componentType":5126,"count":10201,"type":"VEC3","min":[-1,-1,-1],"max":[1,1,1]},{"bufferView":3,"byteOffset":0,"componentType":5126,"count":10201,"type":"VEC2","min":[-0.004999999888241291,0],"max":[1.0049999952316284,1]},{"bufferView":4,"byteOffset":0,"componentType":5125,"count":540,"type":"SCALAR","min":[0],"max":[191]},{"bufferView":5,"byteOffset":0,"componentType":5126,"count":192,"type":"VEC3","min":[-13.927830696105957,-1622.1002197265625,0],"max":[1906.29296875,0,3119.966064453125]},{"bufferView":6,"byteOffset":0,"componentType":5126,"count":192,"type":"VEC3","min":[-0.9999631643295288,-0.9999972581863403,-1],"max":[1,1,1]},{"bufferView":7,"byteOffset":0,"componentType":5126,"count":192,"type":"VEC2","min":[0,0],"max":[1,1]}],"extensions":{"KHR_lights_punctual":{"lights":[{"type":"directional","name":"Directional Light","color":[1,1,1],"intensity":1}]}},"extensionsUsed":["KHR_lights_punctual"]}